/* XPM */
static char *space[] = {
/* columns rows colors chars-per-pixel */
"64 64 13 1 ",
"  c #000000",
". c #777777",
"X c #000076",
"o c #555555",
"O c #880000",
"+ c #EEEEEE",
"@ c #65CCFF",
"# c #AAAAAA",
"$ c #888888",
"% c #FFFFFF",
"& c #444444",
"* c #33CCFF",
"= c #222222",
/* pixels */
"=                                                               ",
"                                                                ",
"                                 =                              ",
"                                                                ",
"                                                                ",
"        =                                      =                ",
"&       =                                             &         ",
"        &=              &                                       ",
"        .&                               =                      ",
"        .&                    =                          =      ",
"        %%         =                                            ",
"   =&...%%..&=                    $                             ",
"        ##                                                      ",
"        $$                              =                       ",
"        ..           =                          =               ",
"        &.                                              $       ",
"        &&                                                      ",
"        =&                                                      ",
"        =&                                                      ",
"         =                                                      ",
"   $     =                                     O                ",
"         =               $                                      ",
"                                =                               ",
"                                       +                        ",
"    =                                                 =         ",
"               =                                                ",
"                                                                ",
"                                                                ",
"                                                                ",
"                                                                ",
"                               =                                ",
"            =                                                   ",
"                                         &        $             ",
"                                                             =  ",
" =                  =o                                          ",
"                     $                 =                        ",
"                     *            =                             ",
"              &     X@X                                         ",
"                  =o@@@o=                                       ",
"                    X*X                                    &    ",
"                     *                                          ",
"    =                $                                          ",
"              =      o                                          ",
"                     o                                          ",
"                     =                  $      &        %       ",
"                     =                         .                ",
"                        =                     &%&               ",
"                               =            ...%...             ",
"                                              &#&               ",
"       +         =                             #                ",
"                                               .                ",
"                                               .                ",
"                                               &                ",
"                                               &                ",
" =                               &                              ",
"                                                                ",
"                                                                ",
"                                                                ",
"                $                                          =    ",
"                                                                ",
"                                    $             $             ",
"       &                                  =                     ",
"                        =                                       ",
"               =                                                "
};
