/* XPM */
static char *tnt[] = {
/* columns rows colors chars-per-pixel */
"64 64 79 1 ",
"  c #000000",
". c #333333",
"X c #7A1400",
"o c #7B1500",
"O c #781700",
"+ c #676767",
"@ c #811700",
"# c #841E02",
"$ c #851F03",
"% c #8B1900",
"& c #921B00",
"* c #991C00",
"= c #9F1E00",
"- c #822106",
"; c #8B2104",
": c #952304",
"> c #9C2505",
", c #932D11",
"< c #942E12",
"1 c #913015",
"2 c #9A3013",
"3 c #A52100",
"4 c #A32606",
"5 c #AB2500",
"6 c #A92807",
"7 c #AF2B07",
"8 c #B02903",
"9 c #B62D07",
"0 c #B52F0A",
"q c #BC3009",
"w c #BA330D",
"e c #A43213",
"r c #AB3414",
"t c #B23515",
"y c #B83716",
"u c #BE3A16",
"i c #A23C20",
"p c #A33D21",
"a c #A03F24",
"s c #A93F22",
"d c #C1320A",
"f c #C53109",
"g c #C73108",
"h c #C03711",
"j c #C63A13",
"k c #CF3B13",
"l c #CB3C14",
"z c #C43E19",
"x c #D13B12",
"c c #B34122",
"v c #BA4323",
"b c #C9421C",
"n c #C14424",
"m c #C74625",
"M c #CF4620",
"N c #CD4925",
"B c #D54922",
"V c #DA4B23",
"C c #DE4A22",
"Z c #D34D28",
"A c #D8512B",
"S c #DE552F",
"D c #E04A21",
"F c #E45831",
"G c #E95A32",
"H c #ED5931",
"J c #EF5930",
"K c #A5A5A5",
"L c #AFAFAF",
"P c #B2B2B2",
"I c #B9B9B9",
"U c #BCBCBC",
"Y c #C4C4C4",
"T c #C6C6C6",
"R c #CECECE",
"E c #D1D1D1",
"W c #D8D8D8",
"Q c #DBDBDB",
"! c #E5E5E5",
/* pixels */
"JHGFSAZNmnvcspiaJHGFSAZNmnvcspiaJHGFSAZNmnvcspiaJHGFSAZNmnvcspia",
"DCVBMbzuytre2<,1DCVBMbzuytre2<,1DCVBMbzuytre2<,1DCVBMbzuytre2<,1",
"DCVBMbzuytre2<,1DCVBMbzuytre2<,1DCVBMbzuytre2<,1DCVBMbzuytre2<,1",
"DCVBMbzuytre2<,1DCVBMbzuytre2<,1DCVBMbzuytre2<,1DCVBMbzuytre2<,1",
"DCVBMbzuytre2<,1DCVBMbzuytre2<,1DCVBMbzuytre2<,1DCVBMbzuytre2<,1",
"DCVBMbzuytre2<,1DCVBMbzuytre2<,1DCVBMbzuytre2<,1DCVBMbzuytre2<,1",
"DCVBMbzuytre2<,1DCVBMbzuytre2<,1DCVBMbzuytre2<,1DCVBMbzuytre2<,1",
"DCVBMbzuytre2<,1DCVBMbzuytre2<,1DCVBMbzuytre2<,1DCVBMbzuytre2<,1",
"DCVBMbzuytre2<,1DCVBMbzuytre2<,1DCVBMbzuytre2<,1DCVBMbzuytre2<,1",
"DCVBMbzuytre2<,1DCVBMbzuytre2<,1DCVBMbzuytre2<,1DCVBMbzuytre2<,1",
"DCVBMbzuytre2<,1DCVBMbzuytre2<,1DCVBMbzuytre2<,1DCVBMbzuytre2<,1",
"DCVBMbzuytre2<,1DCVBMbzuytre2<,1DCVBMbzuytre2<,1DCVBMbzuytre2<,1",
"DCVBMbzuytre2<,1DCVBMbzuytre2<,1DCVBMbzuytre2<,1DCVBMbzuytre2<,1",
"DCVBMbzuytre2<,1DCVBMbzuytre2<,1DCVBMbzuytre2<,1DCVBMbzuytre2<,1",
"DCVBMbzuytre2<,1DCVBMbzuytre2<,1DCVBMbzuytre2<,1DCVBMbzuytre2<,1",
"DCVBMbzuytre2<,1DCVBMbzuytre2<,1DCVBMbzuytre2<,1DCVBMbzuytre2<,1",
"DCVBMbzuytre2<,1DCVBMbzuytre2<,1DCVBMbzuytre2<,1DCVBMbzuytre2<,1",
"DCVBMbzuytre2<,1DCVBMbzuytre2<,1DCVBMbzuytre2<,1DCVBMbzuytre2<,1",
"DCVBMbzuytre2<,1DCVBMbzuytre2<,1DCVBMbzuytre2<,1DCVBMbzuytre2<,1",
"DCVBMbzuytre2<,1DCVBMbzuytre2<,1DCVBMbzuytre2<,1DCVBMbzuytre2<,1",
"!!!!!!!!!!QWWWQ!!!!!!!!!!!!!!!QWWWQ!!!!!!!!!!QWWWWQ!!!!!!!!!!QWR",
"!QQQQQQQQQERRRREQQQQQQQQQQQQQQQERRREQQQQQQQQERRRRRREQQQQQQQQQERY",
"QQQQQQQQQQQERRRREEQQQQQQQQQQQQQQERRREQQQQQEERRRRRRRREEQQQQQQERRY",
"WEQQQQQQQQQERRRRRREEEEEEEEEEEEQQQERRREEEEERRRRRRRRRRRREQQQQQERRY",
"WREQQQQQ            RRRR    RREQQQER    RRRR            QQQERRRY",
"WRREQQQQ            RRRR    RRREQQQE    RRRR            QQQERRRY",
"WRRREEQQ            RRRR    +RRREQQQ    RRRR            QQERRRRY",
"WRRRRREE            RRRR     +RRREEE    RRRR            EERRRRRY",
"WRRRRRRRRRRR    RRRRRRRR      .RRRRR    RRRRRRRR    RRRRRRRRRRRY",
"WRRRRRRRRRRR    RRRRRRRR       .RRRR    RRRRRRRR    RRRRRRRRRRRY",
"WRRRRRRRRRRR    RRRRRRRR    .   +RRR    RRRRRRRR    RRRRRRRRRRRY",
"WRRRRRRRRRRR    RRRRRRRR    R.   +RR    RRRRRRRR    RRRRRRRRRRRY",
"WRRRRRRRRRRR    RRRRRRRR    RR+   .R    RRRRRRRR    RRRRRRRRRRRY",
"WRRRRRRRRRRR    RRRRRRRR    RRR+   .    RRRRRRRR    RRRRRRRRRRRY",
"WRRRRRRRRRRR    RRRRRRRR    RRRR.       RRRRRRRR    RRRRRRRRRRRY",
"WRRRRRUUUUUU    RRRRRRUU    RRRRR.      RRRRRRRR    UUUUUURRRRRY",
"WRRRRULLLLLL    RRRRUULL    RRRRRR+     RRRRRRRR    LLLLLLURRRRY",
"WRRRULLLLLLL    UUUULLLL    UURRRRR+    RRRRRRRR    LLLLLLLURRRY",
"WRUULLLLLLLL    LLLLLLLL    LLUURRRR    RRRRRRRR    LLLLLLLLUURY",
"TULLLLLLLLLL    LLLLLLLL    LLLLUURR    RRUUUURR    LLLLLLLLLLUP",
"ILLLLLLLLUULLLLLLLLLLUULLLLLLLLLLLURRRRRRULLLLURRRRULLLLLLLLLLLK",
"ILLLLLLLURRULLLLLLLLURRULLLLLLLLLLLURRRRULLLLLLURRULLLLLLLLLLLLK",
"ILLLLLLURRRRULLLLLLURRRRULLLLLLLLLLLURRULLLLLLLLUULLLLLLLLLLLLLK",
"LKKKKKPYYYYYYPKKKKPYYYYYYPKKKKKKKKKKKPPKKKKKKKKKKKKKKKKKKKKKKKKK",
"gfdq9853=*&%@oXOgfdq9853=*&%@oXOgfdq9853=*&%@oXOgfdq9853=*&%@oXO",
"DCVBMbzuytre2<,1DCVBMbzuytre2<,1DCVBMbzuytre2<,1DCVBMbzuytre2<,1",
"DCVBMbzuytre2<,1DCVBMbzuytre2<,1DCVBMbzuytre2<,1DCVBMbzuytre2<,1",
"DCVBMbzuytre2<,1DCVBMbzuytre2<,1DCVBMbzuytre2<,1DCVBMbzuytre2<,1",
"DCVBMbzuytre2<,1DCVBMbzuytre2<,1DCVBMbzuytre2<,1DCVBMbzuytre2<,1",
"DCVBMbzuytre2<,1DCVBMbzuytre2<,1DCVBMbzuytre2<,1DCVBMbzuytre2<,1",
"DCVBMbzuytre2<,1DCVBMbzuytre2<,1DCVBMbzuytre2<,1DCVBMbzuytre2<,1",
"DCVBMbzuytre2<,1DCVBMbzuytre2<,1DCVBMbzuytre2<,1DCVBMbzuytre2<,1",
"DCVBMbzuytre2<,1DCVBMbzuytre2<,1DCVBMbzuytre2<,1DCVBMbzuytre2<,1",
"DCVBMbzuytre2<,1DCVBMbzuytre2<,1DCVBMbzuytre2<,1DCVBMbzuytre2<,1",
"DCVBMbzuytre2<,1DCVBMbzuytre2<,1DCVBMbzuytre2<,1DCVBMbzuytre2<,1",
"DCVBMbzuytre2<,1DCVBMbzuytre2<,1DCVBMbzuytre2<,1DCVBMbzuytre2<,1",
"DCVBMbzuytre2<,1DCVBMbzuytre2<,1DCVBMbzuytre2<,1DCVBMbzuytre2<,1",
"DCVBMbzuytre2<,1DCVBMbzuytre2<,1DCVBMbzuytre2<,1DCVBMbzuytre2<,1",
"DCVBMbzuytre2<,1DCVBMbzuytre2<,1DCVBMbzuytre2<,1DCVBMbzuytre2<,1",
"DCVBMbzuytre2<,1DCVBMbzuytre2<,1DCVBMbzuytre2<,1DCVBMbzuytre2<,1",
"DCVBMbzuytre2<,1DCVBMbzuytre2<,1DCVBMbzuytre2<,1DCVBMbzuytre2<,1",
"DCVBMbzuytre2<,1DCVBMbzuytre2<,1DCVBMbzuytre2<,1DCVBMbzuytre2<,1",
"DCVBMbzuytre2<,1DCVBMbzuytre2<,1DCVBMbzuytre2<,1DCVBMbzuytre2<,1",
"xkljhw0764>:;$#-xkljhw0764>:;$#-xkljhw0764>:;$#-xkljhw0764>:;$#-"
};
